<svg id="bin" xmlns="http://www.w3.org/2000/svg" width="15" height="19" viewBox="0 0 15 19">
  <path id="Path_125868" data-name="Path 125868" d="M73.989,1.745a1.008,1.008,0,0,1,1.066-.99h4.383a1.008,1.008,0,0,1,1.066.99V2.83h.79V1.745A1.782,1.782,0,0,0,79.439,0H75.055A1.782,1.782,0,0,0,73.2,1.745V2.83h.79Zm0,0" transform="translate(-69.747)" fill="#df1100"/>
  <path id="Path_125869" data-name="Path 125869" d="M29.773,137.348h9.192a1.626,1.626,0,0,0,1.574-1.7V124H28.2v11.65a1.626,1.626,0,0,0,1.574,1.7ZM36.847,125.8a.389.389,0,0,1,.777,0v8.914a.389.389,0,0,1-.777,0Zm-2.866,0a.389.389,0,0,1,.777,0v8.914a.389.389,0,0,1-.777,0Zm-2.866,0a.389.389,0,0,1,.777,0v8.914a.389.389,0,0,1-.777,0Zm0,0" transform="translate(-26.869 -118.348)" fill="#df1100"/>
  <path id="Path_125870" data-name="Path 125870" d="M.967,69.887H14.034a.944.944,0,1,0,0-1.887H.967a.944.944,0,1,0,0,1.887Zm0,0" transform="translate(0 -64.829)" fill="#df1100"/>
</svg>
