<svg id="Group_13736" data-name="Group 13736" xmlns="http://www.w3.org/2000/svg" width="10" height="7" viewBox="0 0 10 7">
  <g id="Group_13735" data-name="Group 13735">
    <path id="Path_31719" data-name="Path 31719" d="M6.988,64.568c1.375,1.085,3.788,2.993,4.5,3.588a.44.44,0,0,0,.606,0c.71-.6,3.122-2.5,4.5-3.589a.185.185,0,0,0,.029-.268.852.852,0,0,0-.655-.3H7.613a.852.852,0,0,0-.655.3A.185.185,0,0,0,6.988,64.568Z" transform="translate(-6.788 -64)" fill="#d3b056"/>
    <path id="Path_31720" data-name="Path 31720" d="M9.879,126.43a.219.219,0,0,0-.222.028c-1.522,1.2-3.465,2.748-4.076,3.262a.888.888,0,0,1-1.163,0c-.651-.548-2.833-2.279-4.075-3.262a.22.22,0,0,0-.222-.028.194.194,0,0,0-.121.176v4.89a.808.808,0,0,0,.833.778H9.167A.808.808,0,0,0,10,131.5v-4.89A.194.194,0,0,0,9.879,126.43Z" transform="translate(0 -125.274)" fill="#d3b056"/>
  </g>
</svg>
