<svg id="error" xmlns="http://www.w3.org/2000/svg" width="17" height="16" viewBox="0 0 17 16">
  <g id="Group_18185" data-name="Group 18185">
    <path id="Path_125887" data-name="Path 125887" d="M.155,35.081h0c1.132-2.384,3.029-5.764,4.7-8.747.876-1.561,1.7-3.035,2.3-4.156a1.487,1.487,0,0,1,2.683,0c.6,1.121,1.426,2.6,2.3,4.159,1.673,2.982,3.569,6.361,4.7,8.744a1.584,1.584,0,0,1,.155.682,1.546,1.546,0,0,1-1.518,1.57H1.518A1.546,1.546,0,0,1,0,35.763,1.584,1.584,0,0,1,.155,35.081Zm8.345.8a.728.728,0,1,0-.708-.727A.719.719,0,0,0,8.5,35.879Zm-.708-2.545a.359.359,0,0,0,.354.364h.708a.359.359,0,0,0,.354-.364v-8a.359.359,0,0,0-.354-.364H8.146a.359.359,0,0,0-.354.364Z" transform="translate(0 -21.333)" fill="#ff2513"/>
  </g>
</svg>
