<svg xmlns="http://www.w3.org/2000/svg" width="14" height="13.999" viewBox="0 0 14 13.999">
  <g id="global" transform="translate(0 -1.668)">
    <path id="Path_31749" data-name="Path 31749" d="M138.537,273.71v-2.75h-3.065a13.9,13.9,0,0,0,.411,3.049A15.249,15.249,0,0,1,138.537,273.71Z" transform="translate(-131.827 -261.987)" fill="#fff"/>
    <path id="Path_31750" data-name="Path 31750" d="M159.821,398.481a2.195,2.195,0,0,0,.817.455V395.6a14.43,14.43,0,0,0-2.4.265,8.756,8.756,0,0,0,.441,1.059A4.851,4.851,0,0,0,159.821,398.481Z" transform="translate(-153.96 -383.269)" fill="#fff"/>
    <path id="Path_31751" data-name="Path 31751" d="M272.922,396.929a8.759,8.759,0,0,0,.441-1.059,14.423,14.423,0,0,0-2.4-.265v3.331a2.194,2.194,0,0,0,.817-.455A4.85,4.85,0,0,0,272.922,396.929Z" transform="translate(-263.639 -383.269)" fill="#fff"/>
    <path id="Path_31752" data-name="Path 31752" d="M337.646,14.885a9.317,9.317,0,0,0,1.684-.633l-.108-.11a7.417,7.417,0,0,0-2.934-1.811,6.568,6.568,0,0,1,.844,1.308A9.677,9.677,0,0,1,337.646,14.885Z" transform="translate(-327.392 -10.352)" fill="#fff"/>
    <path id="Path_31753" data-name="Path 31753" d="M270.96,270.96v2.75a15.252,15.252,0,0,1,2.654.3,13.906,13.906,0,0,0,.411-3.049Z" transform="translate(-263.67 -261.987)" fill="#fff"/>
    <path id="Path_31754" data-name="Path 31754" d="M158.676,3.675a8.756,8.756,0,0,0-.441,1.059,14.423,14.423,0,0,0,2.4.265V1.668a2.194,2.194,0,0,0-.817.455,4.85,4.85,0,0,0-1.145,1.552Z" transform="translate(-153.96)" fill="#fff"/>
    <path id="Path_31755" data-name="Path 31755" d="M138.538,139.054V136.3a15.247,15.247,0,0,1-2.654-.3,13.9,13.9,0,0,0-.411,3.049Z" transform="translate(-131.828 -130.693)" fill="#fff"/>
    <path id="Path_31756" data-name="Path 31756" d="M72.626,411.664a9.319,9.319,0,0,0-1.684.633l.108.11a7.418,7.418,0,0,0,2.934,1.811,6.568,6.568,0,0,1-.844-1.308A9.68,9.68,0,0,1,72.626,411.664Z" transform="translate(-68.881 -398.862)" fill="#fff"/>
    <path id="Path_31757" data-name="Path 31757" d="M391.451,274.212a9.979,9.979,0,0,1,2.019.787,7.381,7.381,0,0,0,1.481-4.04h-3.064A14.815,14.815,0,0,1,391.451,274.212Z" transform="translate(-380.951 -262.034)" fill="#fff"/>
    <path id="Path_31758" data-name="Path 31758" d="M337.646,411.664a9.681,9.681,0,0,1-.513,1.247,6.571,6.571,0,0,1-.844,1.308,7.418,7.418,0,0,0,2.934-1.811l.108-.11A9.314,9.314,0,0,0,337.646,411.664Z" transform="translate(-327.392 -398.862)" fill="#fff"/>
    <path id="Path_31759" data-name="Path 31759" d="M391.451,102.68a14.813,14.813,0,0,1,.436,3.253h3.064a7.381,7.381,0,0,0-1.481-4.04A9.977,9.977,0,0,1,391.451,102.68Z" transform="translate(-380.951 -97.524)" fill="#fff"/>
    <path id="Path_31760" data-name="Path 31760" d="M270.96,136.3v2.75h3.065a13.907,13.907,0,0,0-.411-3.049A15.246,15.246,0,0,1,270.96,136.3Z" transform="translate(-263.67 -130.693)" fill="#fff"/>
    <path id="Path_31761" data-name="Path 31761" d="M271.777,2.123a2.2,2.2,0,0,0-.817-.455V5a14.426,14.426,0,0,0,2.4-.265,8.758,8.758,0,0,0-.441-1.059A4.85,4.85,0,0,0,271.777,2.123Z" transform="translate(-263.639)" fill="#fff"/>
    <path id="Path_31762" data-name="Path 31762" d="M72.626,14.884a9.678,9.678,0,0,1,.513-1.247,6.568,6.568,0,0,1,.844-1.308A7.418,7.418,0,0,0,71.05,14.14l-.108.11A9.319,9.319,0,0,0,72.626,14.884Z" transform="translate(-68.881 -10.351)" fill="#fff"/>
    <path id="Path_31763" data-name="Path 31763" d="M3.5,274.213a14.818,14.818,0,0,1-.436-3.253H0A7.381,7.381,0,0,0,1.481,275,9.98,9.98,0,0,1,3.5,274.213Z" transform="translate(0 -262.035)" fill="#fff"/>
    <path id="Path_31764" data-name="Path 31764" d="M3.5,102.681a9.979,9.979,0,0,1-2.019-.787A7.381,7.381,0,0,0,0,105.934H3.064A14.816,14.816,0,0,1,3.5,102.681Z" transform="translate(0 -97.525)" fill="#fff"/>
  </g>
</svg>
