<svg xmlns="http://www.w3.org/2000/svg" width="18" height="16" viewBox="0 0 18 16">
  <g id="like" transform="translate(0 -1)">
    <path id="Path_125848" data-name="Path 125848" d="M0,1.125v9A1.125,1.125,0,0,0,1.125,11.25H4.5V0H1.125A1.125,1.125,0,0,0,0,1.125Z" transform="translate(0 5.75)" fill="#a2a2a2"/>
    <path id="Path_125849" data-name="Path 125849" d="M10.3,5.744H6.974a.552.552,0,0,1-.485-.282A.57.57,0,0,1,6.482,4.9L7.654,2.752a1.724,1.724,0,0,0,.073-1.514A1.681,1.681,0,0,0,6.587.257L5.761.047a.556.556,0,0,0-.554.172L.721,5.281A2.881,2.881,0,0,0,0,7.193v5.98A2.838,2.838,0,0,0,2.813,16.03h5.6a2.826,2.826,0,0,0,2.713-2.1l1.2-5.6a2.159,2.159,0,0,0,.053-.475A2.1,2.1,0,0,0,10.3,5.744Z" transform="translate(5.625 0.97)" fill="#a2a2a2"/>
  </g>
</svg>
