<svg xmlns="http://www.w3.org/2000/svg" width="13" height="19" viewBox="0 0 13 19">
  <g id="placeholder_1_" data-name="placeholder (1)" transform="translate(-0.139)">
    <path id="Subtraction_2" data-name="Subtraction 2" d="M6.5,19h0L1.294,11.3a7.713,7.713,0,0,1,.611-9.352,6.393,6.393,0,0,1,9.193,0,7.723,7.723,0,0,1,.6,9.363L6.5,19ZM6.528,3.252a3.611,3.611,0,1,0,3.611,3.611A3.615,3.615,0,0,0,6.528,3.252Zm0,6.19A2.579,2.579,0,1,1,9.107,6.862,2.582,2.582,0,0,1,6.528,9.442Z" transform="translate(0.139)" fill="#d3b056"/>
  </g>
</svg>
