<svg xmlns="http://www.w3.org/2000/svg" xmlns:xlink="http://www.w3.org/1999/xlink" width="172" height="194" viewBox="0 0 172 194">
  <defs>
    <filter id="Path_33" x="29.5" y="62.5" width="118" height="118" filterUnits="userSpaceOnUse">
      <feOffset dx="3" dy="2" input="SourceAlpha"/>
      <feGaussianBlur stdDeviation="1.5" result="blur"/>
      <feFlood flood-opacity="0.651"/>
      <feComposite operator="in" in2="blur"/>
      <feComposite in="SourceGraphic"/>
    </filter>
  </defs>
  <g id="Group_18158" data-name="Group 18158" transform="translate(-123.297 -186.31)">
    <ellipse id="Ellipse_125" data-name="Ellipse 125" cx="78" cy="3" rx="78" ry="3" transform="translate(131.297 374.31)" opacity="0.1"/>
    <g id="Group_18133" data-name="Group 18133" transform="translate(123 186.036)">
      <g id="Ellipse_206" data-name="Ellipse 206" transform="translate(0.297 87.274)" fill="none" stroke="#d3b056" stroke-width="1" stroke-dasharray="1 1">
        <circle cx="6" cy="6" r="6" stroke="none"/>
        <circle cx="6" cy="6" r="5.5" fill="none"/>
      </g>
      <g id="Ellipse_207" data-name="Ellipse 207" transform="translate(12.297 26.274)" fill="none" stroke="#d3b056" stroke-width="2" stroke-dasharray="1 1">
        <circle cx="10" cy="10" r="10" stroke="none"/>
        <circle cx="10" cy="10" r="9" fill="none"/>
      </g>
      <g id="Ellipse_208" data-name="Ellipse 208" transform="translate(95.297 0.274)" fill="none" stroke="#d3b056" stroke-width="1" stroke-dasharray="1 1">
        <circle cx="6" cy="6" r="6" stroke="none"/>
        <circle cx="6" cy="6" r="5.5" fill="none"/>
      </g>
      <g id="Ellipse_218" data-name="Ellipse 218" transform="translate(65.297 40.274)" fill="none" stroke="#d3b056" stroke-width="1" stroke-dasharray="1 1">
        <circle cx="5" cy="5" r="5" stroke="none"/>
        <circle cx="5" cy="5" r="4.5" fill="none"/>
      </g>
      <g id="Ellipse_209" data-name="Ellipse 209" transform="translate(152.297 17.274)" fill="none" stroke="#d3b056" stroke-width="2" stroke-dasharray="1 1">
        <ellipse cx="10" cy="10.5" rx="10" ry="10.5" stroke="none"/>
        <ellipse cx="10" cy="10.5" rx="9" ry="9.5" fill="none"/>
      </g>
      <g id="Ellipse_210" data-name="Ellipse 210" transform="translate(155.297 94.274)" fill="none" stroke="#d3b056" stroke-width="1" stroke-dasharray="1 1">
        <ellipse cx="6.5" cy="6" rx="6.5" ry="6" stroke="none"/>
        <ellipse cx="6.5" cy="6" rx="6" ry="5.5" fill="none"/>
      </g>
    </g>
    <g id="Group_47" data-name="Group 47" transform="translate(-141.054 0.46)">
      <g transform="matrix(1, 0, 0, 1, 264.35, 185.85)" filter="url(#Path_33)">
        <path id="Path_33-2" data-name="Path 33" d="M403.787,313.5l-6.41,3.895,3.794,6.473-7.048,2.57,2.45,7.092-7.415,1.135,1.014,7.433-7.5-.333-.451,7.485-7.286-1.78-1.9,7.257-6.8-3.165-3.277,6.748-6.049-4.436-4.538,5.973-5.062-5.536-5.616,4.974-3.895-6.41-6.473,3.794-2.57-7.049-7.091,2.451-1.134-7.417-7.433,1.014.333-7.494-7.488-.451,1.782-7.288-7.258-1.9,3.164-6.8-6.748-3.276,4.436-6.05-5.973-4.539,5.537-5.061-4.973-5.616,6.411-3.9-3.794-6.471,7.047-2.571-2.45-7.09,7.415-1.136-1.013-7.431,7.494.333.452-7.487,7.286,1.782,1.9-7.259,6.8,3.165,3.277-6.748,6.048,4.436,4.538-5.973,5.063,5.536L358,251.415l3.9,6.41,6.473-3.794,2.569,7.047,7.091-2.449,1.136,7.415,7.433-1.014-.334,7.494,7.487.453-1.782,7.286,7.258,1.9-3.165,6.8,6.748,3.276-4.436,6.049,5.974,4.538-5.537,5.063Z" transform="translate(-264.35 -185.85)" fill="#d3b056"/>
      </g>
      <ellipse id="Ellipse_2" data-name="Ellipse 2" cx="42.512" cy="42.512" rx="42.512" ry="42.512" transform="translate(307.34 262.838)" fill="none" stroke="#fff" stroke-miterlimit="10" stroke-width="1"/>
      <g id="Group_19030" data-name="Group 19030" transform="translate(275.307 229.318)">
        <path id="Path_127208" data-name="Path 127208" d="M-14.253-4.922c0-5.2-7.83-4.416-7.83-6.831a1.078,1.078,0,0,1,1.2-1.15,1.4,1.4,0,0,1,1.5,1.472h4.92c-.162-3.22-2.61-5.037-6.352-5.037-3.441,0-6.1,1.7-6.1,4.876-.069,5.635,7.83,4.416,7.853,7.015,0,.759-.624,1.173-1.432,1.173a1.538,1.538,0,0,1-1.64-1.633h-4.827c.185,3.473,3,5.2,6.629,5.2C-16.47.161-14.253-2.07-14.253-4.922ZM-.972,0H3.809L-2.1-16.215h-5.22L-13.26,0H-8.5l.878-2.645H-1.85ZM-2.982-6.1H-6.469l1.732-5.244Zm8.269-10.12V0h9.585V-3.45H9.814V-16.215Zm21.757,0H16.627V0H27.044V-3.611h-5.89V-6.532h5.2V-9.959h-5.2V-12.6h5.89Z" transform="translate(75 78)" fill="#fff"/>
        <path id="Path_127209" data-name="Path 127209" d="M-19.349-7.31h4.586v1.5H-17.79v1.28a1.675,1.675,0,0,1,1.152-.4,2.786,2.786,0,0,1,1.182.225,1.757,1.757,0,0,1,.734.6,2.753,2.753,0,0,1,.493,1.57,2.488,2.488,0,0,1-.694,1.855,2.588,2.588,0,0,1-1.9.685A2.912,2.912,0,0,1-18.73-.575a2.123,2.123,0,0,1-.79-1.485h1.7a.718.718,0,0,0,.312.475,1.2,1.2,0,0,0,.7.185.819.819,0,0,0,.679-.3,1.219,1.219,0,0,0,.236-.785,1.087,1.087,0,0,0-.246-.76.848.848,0,0,0-.659-.27.979.979,0,0,0-.629.175.723.723,0,0,0-.267.435h-1.659Zm7.568.33a3.009,3.009,0,0,1,1.323-.27,3.009,3.009,0,0,1,1.323.27,2.121,2.121,0,0,1,.88.77,3.628,3.628,0,0,1,.473,1.135A6.227,6.227,0,0,1-7.632-3.64a6.227,6.227,0,0,1-.151,1.435A3.628,3.628,0,0,1-8.256-1.07a2.121,2.121,0,0,1-.88.77,3.009,3.009,0,0,1-1.323.27A3.009,3.009,0,0,1-11.781-.3a2.121,2.121,0,0,1-.88-.77,3.628,3.628,0,0,1-.473-1.135,6.227,6.227,0,0,1-.151-1.435,6.227,6.227,0,0,1,.151-1.435,3.628,3.628,0,0,1,.473-1.135A2.121,2.121,0,0,1-11.781-6.98Zm1.83,1.445a1.067,1.067,0,0,0-.508-.115,1.067,1.067,0,0,0-.508.115.9.9,0,0,0-.332.285,1.414,1.414,0,0,0-.186.45,3.242,3.242,0,0,0-.091.54q-.02.26-.02.62t.02.62a3.242,3.242,0,0,0,.091.54,1.414,1.414,0,0,0,.186.45.9.9,0,0,0,.332.285,1.067,1.067,0,0,0,.508.115,1.067,1.067,0,0,0,.508-.115.9.9,0,0,0,.332-.285,1.414,1.414,0,0,0,.186-.45,3.242,3.242,0,0,0,.091-.54q.02-.26.02-.62t-.02-.62a3.242,3.242,0,0,0-.091-.54,1.414,1.414,0,0,0-.186-.45A.9.9,0,0,0-9.95-5.535ZM-.969-.91q.488,0,.488-.67t-.488-.67q-.488,0-.488.67T-.969-.91Zm-1.207.57a1.62,1.62,0,0,1-.468-1.24,1.62,1.62,0,0,1,.468-1.24A1.7,1.7,0,0,1-.964-3.26a1.679,1.679,0,0,1,1.207.44A1.63,1.63,0,0,1,.705-1.58,1.63,1.63,0,0,1,.243-.34,1.679,1.679,0,0,1-.964.1,1.7,1.7,0,0,1-2.176-.34ZM-5.852,0-1.98-7.04H-.32L-4.192,0ZM-5.2-4.79q.488,0,.488-.67T-5.2-6.13q-.488,0-.488.67T-5.2-4.79Zm-1.207.57a1.62,1.62,0,0,1-.468-1.24A1.62,1.62,0,0,1-6.41-6.7,1.7,1.7,0,0,1-5.2-7.14a1.679,1.679,0,0,1,1.207.44,1.63,1.63,0,0,1,.463,1.24,1.63,1.63,0,0,1-.463,1.24A1.679,1.679,0,0,1-5.2-3.78,1.7,1.7,0,0,1-6.41-4.22ZM6.323-2.06A2.081,2.081,0,0,0,6.83-3.53,2.081,2.081,0,0,0,6.323-5a1.759,1.759,0,0,0-1.358-.55A1.759,1.759,0,0,0,3.607-5,2.081,2.081,0,0,0,3.1-3.53a2.081,2.081,0,0,0,.508,1.47,1.759,1.759,0,0,0,1.358.55A1.759,1.759,0,0,0,6.323-2.06ZM2.4-.95A3.443,3.443,0,0,1,1.349-3.53,3.427,3.427,0,0,1,2.4-6.105,3.566,3.566,0,0,1,4.975-7.12,3.532,3.532,0,0,1,7.539-6.105,3.443,3.443,0,0,1,8.58-3.53,3.451,3.451,0,0,1,7.534-.95,3.533,3.533,0,0,1,4.97.07,3.55,3.55,0,0,1,2.4-.95ZM9.687,0V-7.02h4.6v1.3H11.407v1.51h2.152v1.3H11.407V0ZM15.47,0V-7.02h4.6v1.3H17.19v1.51h2.152v1.3H17.19V0Z" transform="translate(75.356 91.432)" fill="#fff"/>
      </g>
      <g id="Group_19033" data-name="Group 19033" transform="translate(20)">
        <g id="Group_19031" data-name="Group 19031" transform="translate(299.723 286.313)">
          <path id="Path_94" data-name="Path 94" d="M307.659,323.618l1.671,2.332,2.819-.532-1.7,2.31,1.377,2.517-2.722-.9-1.968,2.087.019-2.869-2.593-1.227,2.734-.869Z" transform="translate(-305.56 -330.618)" fill="#fff"/>
          <path id="Path_95" data-name="Path 95" d="M401.095,323.618l-1.671,2.332-2.819-.532,1.7,2.31-1.377,2.517,2.722-.9,1.968,2.087-.019-2.869,2.593-1.227-2.734-.869Z" transform="translate(-354.13 -334.618)" fill="#fff"/>
        </g>
        <g id="Group_19032" data-name="Group 19032" transform="translate(304.996 329.257)">
          <path id="Path_96" data-name="Path 96" d="M316.027,402.046l1,1.394,1.685-.318-1.017,1.38.823,1.5-1.627-.541-1.176,1.248.011-1.714-1.55-.733,1.634-.519Z" transform="translate(-312.175 -399.046)" fill="#fff"/>
          <path id="Path_97" data-name="Path 97" d="M395.064,402.046l-1,1.394-1.685-.318,1.017,1.38-.823,1.5,1.627-.541,1.176,1.248L395.366,405l1.55-.733-1.634-.519Z" transform="translate(-343.495 -411.046)" fill="#fff"/>
        </g>
      </g>
    </g>
  </g>
</svg>
