<svg xmlns="http://www.w3.org/2000/svg" width="11" height="15" viewBox="0 0 11 15">
  <g id="lock" transform="translate(-64)">
    <g id="Group_13811" data-name="Group 13811" transform="translate(64)">
      <path id="Path_31765" data-name="Path 31765" d="M74.694,5.625h-.917V4.375a4.279,4.279,0,1,0-8.556,0v1.25h-.917A.309.309,0,0,0,64,5.938V13.75A1.238,1.238,0,0,0,65.222,15h8.556A1.238,1.238,0,0,0,75,13.75V5.938A.309.309,0,0,0,74.694,5.625Zm-4.28,6.528a.318.318,0,0,1-.076.243.3.3,0,0,1-.228.1H68.889a.3.3,0,0,1-.228-.1.318.318,0,0,1-.076-.243l.193-1.773a1.222,1.222,0,1,1,1.444,0Zm1.53-6.528H67.056V4.375a2.445,2.445,0,1,1,4.889,0Z" transform="translate(-64)" fill="#fff"/>
    </g>
  </g>
</svg>
