<svg xmlns="http://www.w3.org/2000/svg" width="14" height="15" viewBox="0 0 14 15">
  <g id="user" transform="translate(-31 -1)">
    <g id="Group_11155" data-name="Group 11155" transform="translate(34.836 1)">
      <g id="Group_11154" data-name="Group 11154" transform="translate(0)">
        <path id="Path_31422" data-name="Path 31422" d="M124.164,0a3.164,3.164,0,1,0,3.164,3.164A3.168,3.168,0,0,0,124.164,0Z" transform="translate(-121)" fill="#d3b056"/>
      </g>
    </g>
    <g id="Group_11157" data-name="Group 11157" transform="translate(31 9.672)">
      <g id="Group_11156" data-name="Group 11156" transform="translate(0)">
        <path id="Path_31423" data-name="Path 31423" d="M43.226,301.737A6.115,6.115,0,0,0,38.933,300H37.067a6.115,6.115,0,0,0-4.292,1.737A5.753,5.753,0,0,0,31,305.88a.458.458,0,0,0,.467.448H44.533A.458.458,0,0,0,45,305.88,5.753,5.753,0,0,0,43.226,301.737Z" transform="translate(-31 -300)" fill="#d3b056"/>
      </g>
    </g>
  </g>
</svg>
