<svg id="Group_357" data-name="Group 357" xmlns="http://www.w3.org/2000/svg" width="13.997" height="13.996" viewBox="0 0 13.997 13.996">
  <g id="Group_356" data-name="Group 356" transform="translate(0 0)">
    <path id="Path_1360" data-name="Path 1360" d="M14.63,11.815,11.8,9.926a.827.827,0,0,0-1.107.18l-.825,1.061a.353.353,0,0,1-.452.1l-.157-.087A9.487,9.487,0,0,1,6.783,9.234,9.525,9.525,0,0,1,4.841,6.761L4.755,6.6a.353.353,0,0,1,.093-.454l1.06-.825a.827.827,0,0,0,.18-1.107L4.2,1.385a.823.823,0,0,0-1.109-.25l-1.185.712a1.671,1.671,0,0,0-.762.989C.717,4.391,1.038,7.073,4.99,11.025c3.143,3.143,5.484,3.988,7.092,3.988a4.132,4.132,0,0,0,1.1-.143,1.669,1.669,0,0,0,.989-.762l.712-1.184A.823.823,0,0,0,14.63,11.815Z" transform="translate(-1 -1.018)" fill="#d3b056"/>
    <path id="Path_1361" data-name="Path 1361" d="M282.861,69.79a3.97,3.97,0,0,1,3.965,3.965.233.233,0,0,0,.466,0,4.437,4.437,0,0,0-4.432-4.432.233.233,0,0,0,0,.466Z" transform="translate(-274.93 -67.457)" fill="#d3b056"/>
    <path id="Path_1362" data-name="Path 1362" d="M282.861,120.99a2.569,2.569,0,0,1,2.566,2.566.233.233,0,1,0,.466,0,3.036,3.036,0,0,0-3.032-3.032.233.233,0,0,0,0,.466Z" transform="translate(-274.93 -117.257)" fill="#d3b056"/>
    <path id="Path_1363" data-name="Path 1363" d="M282.861,172.19a1.168,1.168,0,0,1,1.166,1.166.233.233,0,1,0,.466,0,1.635,1.635,0,0,0-1.633-1.633.233.233,0,0,0,0,.466Z" transform="translate(-274.93 -167.058)" fill="#d3b056"/>
  </g>
</svg>
