<svg xmlns="http://www.w3.org/2000/svg" width="11" height="14" viewBox="0 0 11 14">
  <g id="list_2_" data-name="list (2)" transform="translate(-6.5)">
    <path id="Subtraction_7" data-name="Subtraction 7" d="M11,14H0V0H7.586L11,3.4V14ZM2.184,9.791a.154.154,0,0,0-.123.069.3.3,0,0,0,0,.335l.348.474a.155.155,0,0,0,.123.069.149.149,0,0,0,.109-.052l.87-.947a.3.3,0,0,0,.027-.334A.162.162,0,0,0,3.4,9.317a.148.148,0,0,0-.108.052l-.749.815L2.307,9.86A.154.154,0,0,0,2.184,9.791Zm1.721.237c-.1,0-.174.106-.174.237s.078.236.174.236H6.691c.1,0,.174-.106.174-.236s-.078-.237-.174-.237Zm-1.721-2.8a.154.154,0,0,0-.123.069.3.3,0,0,0,0,.335l.348.474a.155.155,0,0,0,.123.069.149.149,0,0,0,.109-.052l.87-.947a.3.3,0,0,0,.027-.334A.162.162,0,0,0,3.4,6.755a.148.148,0,0,0-.108.052l-.749.815L2.307,7.3A.154.154,0,0,0,2.184,7.228ZM3.9,7.462c-.1,0-.174.106-.174.237s.078.236.174.236H6.691c.1,0,.174-.106.174-.236s-.078-.237-.174-.237Zm-1.721-2.8a.154.154,0,0,0-.123.069.3.3,0,0,0,0,.335l.348.474a.155.155,0,0,0,.123.069.149.149,0,0,0,.109-.052l.87-.947a.3.3,0,0,0,.027-.334A.162.162,0,0,0,3.4,4.193a.148.148,0,0,0-.108.052l-.749.815-.238-.324A.154.154,0,0,0,2.184,4.666ZM3.9,4.9c-.1,0-.174.106-.174.237s.078.236.174.236H6.691c.1,0,.174-.106.174-.236S6.787,4.9,6.691,4.9ZM7.586.7l.138,2.567H10.2Z" transform="translate(6.5)" fill="#fff"/>
  </g>
</svg>
