<svg id="manu" xmlns="http://www.w3.org/2000/svg" width="17" height="17" viewBox="0 0 17 17">
  <path id="Path_61644" data-name="Path 61644" d="M6.432,0H1.448A1.449,1.449,0,0,0,0,1.448V6.432A1.449,1.449,0,0,0,1.448,7.879H6.432A1.449,1.449,0,0,0,7.879,6.432V1.448A1.449,1.449,0,0,0,6.432,0Z" transform="translate(0 0)" fill="#d3b056"/>
  <path id="Path_61645" data-name="Path 61645" d="M254.432,0h-4.984A1.449,1.449,0,0,0,248,1.448V6.432a1.449,1.449,0,0,0,1.448,1.448h4.984a1.449,1.449,0,0,0,1.448-1.448V1.448A1.449,1.449,0,0,0,254.432,0Z" transform="translate(-238.879 0)" fill="#d3b056"/>
  <path id="Path_61646" data-name="Path 61646" d="M6.432,248H1.448A1.449,1.449,0,0,0,0,249.448v4.984a1.449,1.449,0,0,0,1.448,1.448H6.432a1.449,1.449,0,0,0,1.448-1.448v-4.984A1.449,1.449,0,0,0,6.432,248Z" transform="translate(0 -238.879)" fill="#d3b056"/>
  <path id="Path_61647" data-name="Path 61647" d="M254.432,248h-4.984A1.449,1.449,0,0,0,248,249.448v4.984a1.449,1.449,0,0,0,1.448,1.448h4.984a1.449,1.449,0,0,0,1.448-1.448v-4.984A1.449,1.449,0,0,0,254.432,248Z" transform="translate(-238.879 -238.879)" fill="#d3b056"/>
</svg>
