<svg xmlns="http://www.w3.org/2000/svg" width="20" height="16" viewBox="0 0 20 16">
  <path id="Path_537" data-name="Path 537" d="M170.552,149.184a8.519,8.519,0,0,1-2.026.564c.328-.055.81-.631,1-.86a3.66,3.66,0,0,0,.673-1.183c0-.035.032-.075,0-.1a.133.133,0,0,0-.109,0,10.361,10.361,0,0,1-2.4.9.165.165,0,0,1-.166-.043,2.088,2.088,0,0,0-.211-.209,4.122,4.122,0,0,0-2.929-.966,4.359,4.359,0,0,0-3.079,1.542,3.99,3.99,0,0,0-.81,1.578,4.191,4.191,0,0,0-.04,1.68c0,.091,0,.107-.085.091a12.953,12.953,0,0,1-8.253-4.086c-.093-.11-.146-.11-.227,0a3.992,3.992,0,0,0,.713,4.811,6.592,6.592,0,0,0,.506.434,4.315,4.315,0,0,1-1.592-.434c-.093-.059-.142-.024-.15.083a2.222,2.222,0,0,0,.024.458A4.144,4.144,0,0,0,154,156.72a2.694,2.694,0,0,0,.527.158,4.929,4.929,0,0,1-1.56.047c-.113-.024-.158.032-.113.138a4.372,4.372,0,0,0,3.282,2.678c.146.024.3.024.446.059l-.028.024a5.212,5.212,0,0,1-2.241,1.156,8.177,8.177,0,0,1-3.4.426c-.182-.028-.219-.024-.271,0s0,.071.053.118a6.644,6.644,0,0,0,.709.394,11.349,11.349,0,0,0,2.277.883,12.319,12.319,0,0,0,11.75-2.678c2.431-2.331,3.241-5.545,3.241-8.767,0-.126.154-.193.243-.26a7.866,7.866,0,0,0,1.6-1.621.461.461,0,0,0,.1-.312h0C170.625,149.136,170.625,149.136,170.552,149.184Z" transform="translate(-150.616 -147.271)" fill="#d3b056"/>
</svg>
